<svg xmlns="http://www.w3.org/2000/svg" viewBox="0 0 40 40" fill="none">
  <defs>
    <linearGradient id="g" gradientUnits="userSpaceOnUse" x1="5" y1="20" x2="34" y2="20">
      <stop offset="0%" stop-color="#2563EB"/>
      <stop offset="100%" stop-color="#06B6D4"/>
    </linearGradient>
  </defs>
  <!-- Container: light slate bg (legible on all browser chrome backgrounds) -->
  <rect width="40" height="40" rx="8" fill="#F1F5F9"/>
  <!-- S letterform -->
  <path d="M17 10C17 7.5 15.2 7 13 7L9 7C6.8 7 5 8.5 5 10.5C5 12.5 6.8 14 9 14.5L13 15.5C15.5 16 17 17.5 17 19.5C17 21.5 15.5 23 13 23L9 23C6.8 23 5 21.5 5 19.5"
    stroke="url(#g)" stroke-width="3.5" stroke-linecap="round" stroke-linejoin="round"/>
  <!-- B letterform -->
  <path d="M20 7L20 33M20 7L26 7C29.5 7 32 10 32 13C32 16 29.5 19 26 19L20 19M20 19L27 19C31 19 34 22 34 26C34 30 31 33 27 33L20 33"
    stroke="url(#g)" stroke-width="3.5" stroke-linecap="round" stroke-linejoin="round"/>
</svg>
